<?xml version="1.0" encoding="UTF-8"?>
<svg id="Layer_1" xmlns="http://www.w3.org/2000/svg" version="1.1" viewBox="0 0 792 612">
  <!-- Generator: Adobe Illustrator 30.4.0, SVG Export Plug-In . SVG Version: 2.1.4 Build 226)  -->
  <defs>
    <style>
      .st0 {
        fill: #231f20;
      }

      .st1 {
        fill: #11113a;
      }

      .st2 {
        fill: #575757;
      }

      .st3 {
        fill: #565656;
      }
    </style>
  </defs>
  <g>
    <path class="st0" d="M86.1,390.1h48.3v8.2h-57.5v-90.3h56v8.2h-46.8v31h43.7v8.2h-43.7v34.8Z"/>
    <path class="st0" d="M185.7,400.6c-6.8,0-12.4-1.2-16.7-3.5-4.3-2.3-7.8-5.3-10.3-8.9-2.6-3.6-4.3-7.5-5.3-11.7-1-4.2-1.5-8.2-1.5-11.9v-56.6h9.2v55.6c0,3.7.4,7.2,1.3,10.7.8,3.4,2.2,6.5,4.1,9.2,1.9,2.7,4.4,4.8,7.6,6.5,3.1,1.7,7,2.5,11.6,2.5s8.5-.8,11.6-2.5c3.1-1.7,5.7-3.8,7.6-6.5,1.9-2.7,3.3-5.7,4.1-9.2.8-3.4,1.3-7,1.3-10.7v-55.6h9.2v56.6c0,3.7-.5,7.7-1.5,11.9-1,4.2-2.7,8.1-5.3,11.7-2.6,3.6-6,6.5-10.4,8.9-4.4,2.3-9.9,3.5-16.6,3.5Z"/>
    <path class="st0" d="M252.2,398.3h-9.2v-90.3h26.5c4.4,0,8.5.4,12.3,1.3,3.8.9,7.1,2.2,9.8,4.1,2.8,1.9,4.9,4.4,6.4,7.5,1.5,3.1,2.3,6.8,2.3,11.2s-.6,6.3-1.8,9.1c-1.2,2.7-2.8,5.1-4.8,7.1-2,2-4.5,3.6-7.3,4.8-2.8,1.2-5.9,2-9.2,2.3l26.4,43h-11.2l-25-42.2h-15.3v42.2ZM252.2,348.2h15.9c7.4,0,13.1-1.3,17.1-4,4-2.7,6-6.7,6-12.1s-.6-5.5-1.7-7.5c-1.1-2-2.6-3.7-4.6-5-2-1.3-4.3-2.2-7.1-2.8-2.8-.6-5.9-.9-9.3-.9h-16.3v32.3Z"/>
    <path class="st0" d="M408.7,353.2c0,6.9-1.2,13.2-3.6,19-2.4,5.8-5.7,10.8-9.9,15-4.2,4.2-9.2,7.5-14.9,9.9-5.7,2.4-12,3.6-18.7,3.6s-12.9-1.2-18.7-3.6c-5.7-2.4-10.7-5.7-14.9-9.9-4.2-4.2-7.5-9.2-9.9-15-2.4-5.8-3.6-12.1-3.6-19s1.2-13.2,3.6-19c2.4-5.8,5.7-10.8,9.9-15,4.2-4.2,9.2-7.5,14.9-9.9,5.7-2.4,12-3.6,18.7-3.6s12.9,1.2,18.7,3.6c5.7,2.4,10.7,5.7,14.9,9.9,4.2,4.2,7.5,9.2,9.9,15,2.4,5.8,3.6,12.1,3.6,19ZM399,353.2c0-5.3-.9-10.3-2.6-15-1.7-4.8-4.2-8.9-7.4-12.5-3.2-3.6-7.2-6.5-11.8-8.6-4.6-2.1-9.8-3.2-15.6-3.2s-11,1.1-15.6,3.2c-4.6,2.1-8.6,5-11.8,8.6-3.2,3.6-5.7,7.8-7.4,12.5-1.7,4.8-2.6,9.8-2.6,15s.8,10.3,2.6,15c1.7,4.8,4.2,8.9,7.4,12.5,3.2,3.6,7.2,6.4,11.8,8.5,4.6,2.1,9.8,3.2,15.6,3.2s11-1.1,15.6-3.2c4.6-2.1,8.6-5,11.8-8.5,3.2-3.6,5.7-7.7,7.4-12.5,1.7-4.8,2.6-9.8,2.6-15Z"/>
    <path class="st0" d="M427.8,308h25.5c4.6,0,8.8.5,12.5,1.5,3.7,1,7,2.5,9.6,4.5,2.7,2,4.7,4.5,6.2,7.5,1.4,3,2.2,6.6,2.2,10.7s-.7,7.6-2.2,10.7c-1.5,3-3.6,5.5-6.2,7.5-2.7,2-5.9,3.5-9.7,4.5-3.8,1-8,1.5-12.6,1.5h-16.1v42h-9.2v-90.3ZM437,348.6h15.6c7.2,0,12.7-1.4,16.5-4.2,3.7-2.8,5.6-6.9,5.6-12.2s-1.9-9.7-5.8-12.3c-3.9-2.6-9.3-3.9-16.3-3.9h-15.6v32.7Z"/>
    <path class="st0" d="M511,390.1h48.3v8.2h-57.5v-90.3h56v8.2h-46.8v31h43.7v8.2h-43.7v34.8Z"/>
    <path class="st0" d="M666.6,353.2c0,6.9-1.2,13.2-3.6,19-2.4,5.8-5.7,10.8-9.9,15-4.2,4.2-9.2,7.5-14.9,9.9-5.7,2.4-12,3.6-18.7,3.6s-12.9-1.2-18.7-3.6c-5.7-2.4-10.7-5.7-14.9-9.9-4.2-4.2-7.5-9.2-9.9-15-2.4-5.8-3.6-12.1-3.6-19s1.2-13.2,3.6-19c2.4-5.8,5.7-10.8,9.9-15,4.2-4.2,9.2-7.5,14.9-9.9,5.7-2.4,12-3.6,18.7-3.6s12.9,1.2,18.7,3.6c5.7,2.4,10.7,5.7,14.9,9.9,4.2,4.2,7.5,9.2,9.9,15,2.4,5.8,3.6,12.1,3.6,19ZM656.9,353.2c0-5.3-.9-10.3-2.6-15-1.7-4.8-4.2-8.9-7.4-12.5-3.2-3.6-7.2-6.5-11.8-8.6-4.6-2.1-9.8-3.2-15.6-3.2s-11,1.1-15.6,3.2c-4.6,2.1-8.6,5-11.8,8.6-3.2,3.6-5.7,7.8-7.4,12.5-1.7,4.8-2.6,9.8-2.6,15s.8,10.3,2.6,15c1.7,4.8,4.2,8.9,7.4,12.5,3.2,3.6,7.2,6.4,11.8,8.5,4.6,2.1,9.8,3.2,15.6,3.2s11-1.1,15.6-3.2c4.6-2.1,8.6-5,11.8-8.5,3.2-3.6,5.7-7.7,7.4-12.5,1.7-4.8,2.6-9.8,2.6-15Z"/>
    <path class="st0" d="M729.5,322.5c-2-2.7-4.5-4.9-7.5-6.6-3.1-1.7-6.8-2.5-11.1-2.5s-4.5.3-6.8,1c-2.3.7-4.4,1.7-6.2,3.1-1.9,1.4-3.4,3.2-4.5,5.3-1.1,2.1-1.7,4.6-1.7,7.5s.5,5.3,1.7,7.1c1.1,1.9,2.6,3.5,4.4,4.8,1.8,1.3,3.9,2.4,6.2,3.3,2.3.9,4.8,1.7,7.3,2.6,3.1,1,6.3,2.1,9.5,3.3,3.2,1.2,6,2.7,8.6,4.7,2.5,1.9,4.6,4.3,6.2,7.3,1.6,2.9,2.4,6.7,2.4,11.2s-.9,8.4-2.6,11.7c-1.7,3.3-4,6-6.7,8.1-2.7,2.1-5.9,3.7-9.4,4.7-3.5,1-7.1,1.5-10.7,1.5s-5.4-.3-8.2-.8c-2.7-.6-5.3-1.4-7.8-2.5-2.5-1.1-4.8-2.5-6.9-4.2-2.1-1.7-4-3.7-5.6-5.9l7.9-5.9c2,3.2,4.7,5.9,8.2,8.1,3.5,2.2,7.7,3.3,12.4,3.3s4.6-.4,7-1.1c2.4-.7,4.5-1.8,6.4-3.3,1.9-1.5,3.5-3.3,4.7-5.5,1.2-2.2,1.8-4.7,1.8-7.6s-.6-5.8-1.8-7.8c-1.2-2.1-2.9-3.8-4.9-5.2-2-1.4-4.4-2.6-7-3.5-2.6-.9-5.4-1.9-8.3-2.8-3-.9-5.9-2-8.8-3.2-2.9-1.2-5.5-2.7-7.8-4.7-2.3-1.9-4.1-4.3-5.5-7.1-1.4-2.8-2.1-6.2-2.1-10.3s.9-8.1,2.6-11.2c1.7-3.1,4-5.7,6.8-7.8,2.8-2,5.9-3.5,9.3-4.5,3.4-.9,6.8-1.4,10.1-1.4,6.1,0,11.4,1.1,15.7,3.3,4.3,2.2,7.6,4.7,9.8,7.7l-7.3,5.9Z"/>
  </g>
  <g>
    <path class="st2" d="M77.1,426.2h4.7v32.8h-4.7v-32.8Z"/>
    <path class="st2" d="M108.5,458.9h-4.4v-3.3h0c-.4,1-1.1,2-2.2,2.8-1,.8-2.2,1.2-3.6,1.2s-2.3-.2-3.1-.7c-.9-.5-1.6-1.1-2.1-1.9-.6-.8-1-1.7-1.2-2.7-.3-1-.4-2.1-.4-3.1v-13h4.7v11.5c0,.6,0,1.2.1,1.9,0,.7.2,1.3.5,1.8.3.5.6,1,1.1,1.3.5.3,1.1.5,1.8.5s1.4-.2,1.9-.5c.6-.3,1-.8,1.4-1.3.4-.5.6-1.1.8-1.8.2-.7.3-1.4.3-2.1v-11.4h4.7v20.8Z"/>
    <path class="st2" d="M122.7,447.9l-6.8-9.8h5.6l4.1,6.5,4.2-6.5h5.4l-6.7,9.8,7.6,11.1h-5.7l-4.9-7.6-4.9,7.6h-5.5l7.6-11.1Z"/>
    <path class="st2" d="M159.9,458.9h-4.4v-3.3h0c-.4,1-1.1,2-2.2,2.8-1,.8-2.2,1.2-3.6,1.2s-2.3-.2-3.1-.7c-.9-.5-1.6-1.1-2.1-1.9-.6-.8-1-1.7-1.2-2.7-.3-1-.4-2.1-.4-3.1v-13h4.7v11.5c0,.6,0,1.2.1,1.9,0,.7.2,1.3.5,1.8.3.5.6,1,1.1,1.3.5.3,1.1.5,1.8.5s1.4-.2,1.9-.5c.6-.3,1-.8,1.4-1.3.4-.5.6-1.1.8-1.8.2-.7.3-1.4.3-2.1v-11.4h4.7v20.8Z"/>
    <path class="st2" d="M169.5,438.1h4.5v3.5h0c.5-1.2,1.2-2.2,2.2-2.9.9-.8,2-1.1,3.3-1.1s.4,0,.6,0c.2,0,.4,0,.5.1v4.8c-.3,0-.6-.1-.8-.2-.2,0-.4,0-.6,0-1.1,0-1.9.2-2.6.7-.7.4-1.2,1-1.5,1.6-.4.6-.6,1.2-.7,1.9-.1.6-.2,1.1-.2,1.5v11.1h-4.7v-20.8Z"/>
    <path class="st2" d="M184.8,438.1h5.2l5.2,15.1h0l4.6-15.1h4.9l-8.9,25.3c-.3,1-.7,1.8-1.1,2.5-.4.7-.9,1.4-1.4,1.9-.5.5-1.2.9-1.9,1.1-.7.3-1.6.4-2.7.4s-.8,0-1.2,0c-.4,0-.8-.1-1.2-.2l.4-4.5c.3.1.6.2.9.2.3,0,.6,0,.8,0,.5,0,.9,0,1.2-.2.3-.1.6-.3.9-.6.2-.3.4-.6.6-1,.2-.4.4-.9.6-1.4l.9-2.6-8-20.8Z"/>
    <path class="st2" d="M211.6,461l-3.2-1.3,12.2-33.7,3.2,1.4-12.2,33.6Z"/>
    <path class="st2" d="M240.8,443.7c-.4-.6-1-1.1-1.7-1.6-.7-.4-1.5-.7-2.4-.7s-1.4.2-2.1.5-.9.9-.9,1.7.3,1.4,1,1.7c.7.3,1.7.7,3,1,.7.2,1.4.4,2.1.7.7.3,1.4.7,2,1.1.6.5,1.1,1.1,1.4,1.8.4.7.5,1.6.5,2.6s-.2,2.3-.6,3.2-1,1.6-1.7,2.1c-.7.5-1.5.9-2.5,1.2-1,.2-1.9.4-2.9.4-1.5,0-2.9-.3-4.3-.9-1.4-.6-2.5-1.4-3.4-2.5l3.1-3.2c.5.8,1.2,1.4,2,1.9.8.5,1.8.7,2.8.7s.7,0,1-.1c.4,0,.7-.2,1-.4.3-.2.5-.4.7-.8.2-.3.3-.7.3-1.2,0-.9-.4-1.5-1.1-1.9-.7-.4-1.8-.8-3.2-1.1-.7-.2-1.4-.4-2-.7-.7-.3-1.3-.6-1.8-1.1-.5-.4-.9-1-1.2-1.7-.3-.7-.5-1.5-.5-2.5s.2-2.2.6-3,1-1.5,1.7-2.1c.7-.5,1.5-.9,2.4-1.2.9-.3,1.8-.4,2.7-.4,1.4,0,2.7.3,4,.8,1.3.5,2.3,1.3,3.1,2.4l-3,3Z"/>
    <path class="st2" d="M256.3,438.1v2.9h.1c.2-.4.5-.8.9-1.2.4-.4.8-.8,1.4-1.1.5-.3,1.2-.6,1.9-.8.7-.2,1.5-.3,2.3-.3,1.3,0,2.5.3,3.7.8,1.1.6,2.1,1.3,2.9,2.3.8,1,1.4,2.1,1.9,3.5.4,1.3.7,2.8.7,4.3s-.2,3-.6,4.3c-.4,1.3-1,2.5-1.8,3.5-.8,1-1.8,1.8-2.9,2.4-1.1.6-2.4.9-3.8.9s-2.5-.3-3.6-.9c-1.1-.6-2-1.4-2.6-2.5h0v13.2h-4.7v-31.2h4.5ZM267.2,448.4c0-.8-.1-1.6-.3-2.4-.2-.8-.6-1.5-1-2.1-.4-.6-1-1.1-1.7-1.5-.7-.4-1.5-.6-2.4-.6s-1.6.2-2.3.6c-.7.4-1.3.9-1.7,1.6-.5.6-.8,1.4-1.1,2.2-.2.8-.4,1.6-.4,2.4s.1,1.6.4,2.4c.2.8.6,1.5,1.1,2.1.5.6,1.1,1.1,1.7,1.5.7.4,1.4.6,2.3.6s1.7-.2,2.4-.6c.7-.4,1.2-.9,1.7-1.6.4-.6.8-1.4,1-2.2.2-.8.3-1.6.3-2.4Z"/>
    <path class="st2" d="M279.3,448.4c0-1.6.3-3.1.8-4.5.5-1.3,1.3-2.5,2.2-3.4.9-1,2-1.7,3.2-2.2,1.2-.5,2.6-.8,4-.8s2.7.3,4,.8c1.2.5,2.3,1.3,3.2,2.2.9,1,1.6,2.1,2.2,3.4.5,1.3.8,2.8.8,4.5s-.3,3.2-.8,4.5c-.5,1.4-1.3,2.5-2.2,3.5-.9,1-2,1.7-3.2,2.3-1.2.5-2.6.8-4,.8s-2.7-.3-4-.8c-1.2-.5-2.3-1.3-3.2-2.3-.9-1-1.6-2.1-2.2-3.5-.5-1.4-.8-2.9-.8-4.5ZM284.1,448.4c0,.8.1,1.6.3,2.4.2.8.6,1.5,1,2.2.4.6,1,1.2,1.7,1.6.7.4,1.5.6,2.4.6s1.7-.2,2.4-.6c.7-.4,1.2-.9,1.7-1.6.4-.6.8-1.4,1-2.2.2-.8.3-1.6.3-2.4s-.1-1.6-.3-2.4c-.2-.8-.6-1.5-1-2.1-.4-.6-1-1.1-1.7-1.5-.7-.4-1.5-.6-2.4-.6s-1.7.2-2.4.6c-.7.4-1.2.9-1.7,1.5-.4.6-.8,1.4-1,2.1-.2.8-.3,1.6-.3,2.4Z"/>
    <path class="st2" d="M308.1,438.1h4.5v3.5h0c.5-1.2,1.2-2.2,2.2-2.9.9-.8,2-1.1,3.3-1.1s.4,0,.6,0c.2,0,.4,0,.5.1v4.8c-.3,0-.6-.1-.8-.2-.2,0-.4,0-.6,0-1.1,0-1.9.2-2.6.7-.7.4-1.2,1-1.5,1.6-.4.6-.6,1.2-.7,1.9-.1.6-.2,1.1-.2,1.5v11.1h-4.7v-20.8Z"/>
    <path class="st2" d="M323.1,442.3v-4.2h3.3v-6h4.6v6h4.7v4.2h-4.7v9.7c0,.9.1,1.7.4,2.3.3.6,1,.9,2,.9s.7,0,1-.1c.4,0,.7-.2,1-.3l.2,4.1c-.4.2-.9.3-1.5.4-.6.1-1.1.2-1.6.2-1.2,0-2.3-.2-3-.6-.8-.4-1.4-.9-1.9-1.6-.5-.7-.8-1.5-.9-2.3-.2-.9-.3-1.8-.3-2.8v-9.7h-3.3Z"/>
    <path class="st2" d="M368.2,456.3h-.1c-.5.9-1.2,1.7-2.3,2.3-1,.6-2.2.9-3.6.9s-1.5-.1-2.4-.3c-.8-.2-1.6-.6-2.3-1.1-.7-.5-1.3-1.2-1.7-2-.5-.8-.7-1.8-.7-3.1s.4-2.8,1.2-3.7c.8-.9,1.8-1.6,3.1-2.1,1.2-.5,2.6-.8,4.2-1,1.5-.2,3-.2,4.5-.2v-.5c0-1.3-.4-2.3-1.3-2.9-.8-.6-1.9-.9-3-.9s-1.9.2-2.8.7c-.9.5-1.7,1-2.3,1.7l-2.4-3.2c1.1-1.1,2.3-1.9,3.7-2.5,1.4-.5,2.8-.8,4.2-.8s3,.3,4.1.8c1.1.5,1.9,1.2,2.6,2,.6.8,1.1,1.8,1.3,2.8.2,1,.4,2.1.4,3.1v12.7h-4.4v-2.6ZM368.2,449.4h-1.1c-.8,0-1.5,0-2.4.1-.8,0-1.6.2-2.3.5-.7.2-1.3.6-1.8,1-.5.4-.7,1.1-.7,1.8s0,.9.3,1.2c.2.3.4.6.8.8.3.2.7.3,1.1.4.4,0,.8.1,1.2.1,1.6,0,2.8-.5,3.7-1.4.8-1,1.2-2.3,1.2-3.9v-.7Z"/>
    <path class="st2" d="M382,438.1h4.4v3.3h0c.4-1,1.1-2,2.2-2.8,1-.8,2.2-1.2,3.6-1.2s2.3.2,3.1.7c.9.5,1.6,1.1,2.1,1.9.6.8,1,1.7,1.2,2.7.3,1,.4,2.1.4,3.1v13h-4.7v-11.5c0-.6,0-1.2-.1-1.9,0-.7-.2-1.3-.5-1.8-.3-.5-.6-1-1.1-1.3-.5-.3-1.1-.5-1.8-.5s-1.4.2-2,.5c-.5.3-1,.8-1.3,1.3-.4.5-.6,1.1-.8,1.8-.2.7-.3,1.4-.3,2.1v11.4h-4.7v-20.8Z"/>
    <path class="st2" d="M427.6,458.9h-4.4v-3.1h0c-.7,1.2-1.6,2.1-2.7,2.8s-2.4,1-3.7,1-2.7-.3-3.8-.9c-1.1-.6-2.1-1.4-2.9-2.4-.8-1-1.4-2.2-1.8-3.5-.4-1.3-.6-2.8-.6-4.3s.2-3,.7-4.3c.4-1.3,1.1-2.5,1.9-3.5.8-1,1.8-1.8,2.9-2.3,1.1-.6,2.3-.8,3.7-.8s1.6.1,2.3.3c.7.2,1.3.5,1.8.8.5.3.9.7,1.3,1,.4.4.7.7.9,1.1h.1v-14.6h4.7v32.8ZM412.2,448.4c0,.8.1,1.6.3,2.4.2.8.6,1.5,1,2.2.4.6,1,1.2,1.7,1.6.7.4,1.5.6,2.4.6s1.6-.2,2.3-.6c.7-.4,1.3-.9,1.7-1.5.5-.6.8-1.4,1.1-2.1.2-.8.4-1.6.4-2.4s-.1-1.6-.4-2.4c-.2-.8-.6-1.5-1.1-2.2-.5-.6-1.1-1.2-1.7-1.6-.7-.4-1.4-.6-2.3-.6s-1.7.2-2.4.6c-.7.4-1.2.9-1.7,1.5-.4.6-.8,1.4-1,2.1-.2.8-.3,1.6-.3,2.4Z"/>
    <path class="st2" d="M462.5,456.3h-.1c-.5.9-1.2,1.7-2.3,2.3-1,.6-2.2.9-3.6.9s-1.5-.1-2.4-.3c-.8-.2-1.6-.6-2.3-1.1-.7-.5-1.3-1.2-1.7-2s-.7-1.8-.7-3.1.4-2.8,1.2-3.7c.8-.9,1.8-1.6,3.1-2.1,1.2-.5,2.6-.8,4.2-1,1.5-.2,3-.2,4.5-.2v-.5c0-1.3-.4-2.3-1.3-2.9s-1.9-.9-3-.9-1.9.2-2.8.7c-.9.5-1.7,1-2.3,1.7l-2.4-3.2c1.1-1.1,2.3-1.9,3.7-2.5,1.4-.5,2.8-.8,4.2-.8s3,.3,4.1.8c1.1.5,1.9,1.2,2.6,2,.6.8,1.1,1.8,1.3,2.8.2,1,.4,2.1.4,3.1v12.7h-4.4v-2.6ZM462.5,449.4h-1.1c-.8,0-1.5,0-2.4.1-.8,0-1.6.2-2.3.5-.7.2-1.3.6-1.8,1-.5.4-.7,1.1-.7,1.8s0,.9.3,1.2c.2.3.4.6.8.8.3.2.7.3,1.1.4.4,0,.8.1,1.2.1,1.6,0,2.8-.5,3.7-1.4.8-1,1.2-2.3,1.2-3.9v-.7Z"/>
    <path class="st2" d="M476.3,438.1h4.5v3.5h0c.5-1.2,1.2-2.2,2.2-2.9.9-.8,2-1.1,3.3-1.1s.4,0,.6,0c.2,0,.4,0,.5.1v4.8c-.3,0-.6-.1-.8-.2-.2,0-.4,0-.6,0-1.1,0-1.9.2-2.6.7-.7.4-1.2,1-1.5,1.6-.4.6-.6,1.2-.7,1.9-.1.6-.2,1.1-.2,1.5v11.1h-4.7v-20.8Z"/>
    <path class="st2" d="M516.7,437.5c1.2,0,2.3.2,3.1.7.9.5,1.6,1.1,2.1,1.9.6.8,1,1.7,1.2,2.7.3,1,.4,2.1.4,3.1v13h-4.7v-11.5c0-.6,0-1.2-.1-1.9,0-.7-.2-1.3-.5-1.8-.3-.5-.6-1-1.1-1.3-.5-.3-1.1-.5-1.8-.5s-1.4.2-1.9.5c-.5.3-.9.8-1.3,1.3-.3.5-.6,1.2-.7,1.8-.2.7-.2,1.4-.2,2v11.4h-4.7v-12.6c0-1.3-.3-2.4-.8-3.2-.6-.9-1.4-1.3-2.6-1.3s-1.3.2-1.8.5c-.5.3-.9.8-1.3,1.3-.3.5-.6,1.1-.7,1.8-.2.7-.3,1.4-.3,2.1v11.4h-4.7v-20.8h4.4v3.3h0c.2-.5.5-1,.8-1.5.4-.5.8-.9,1.2-1.3.5-.4,1-.7,1.7-.9.6-.2,1.3-.3,2.1-.3,1.5,0,2.7.4,3.6,1.1,1,.7,1.7,1.7,2.2,2.9.6-1.3,1.5-2.2,2.5-2.9,1-.7,2.3-1,3.7-1Z"/>
    <path class="st2" d="M531.9,448.4c0-1.6.3-3.1.8-4.5s1.3-2.5,2.2-3.4c.9-1,2-1.7,3.2-2.2,1.2-.5,2.6-.8,4-.8s2.7.3,4,.8c1.2.5,2.3,1.3,3.2,2.2.9,1,1.6,2.1,2.2,3.4s.8,2.8.8,4.5-.3,3.2-.8,4.5-1.3,2.5-2.2,3.5c-.9,1-2,1.7-3.2,2.3-1.2.5-2.6.8-4,.8s-2.7-.3-4-.8c-1.2-.5-2.3-1.3-3.2-2.3-.9-1-1.6-2.1-2.2-3.5s-.8-2.9-.8-4.5ZM536.7,448.4c0,.8.1,1.6.3,2.4.2.8.6,1.5,1,2.2.4.6,1,1.2,1.7,1.6.7.4,1.5.6,2.4.6s1.7-.2,2.4-.6c.7-.4,1.2-.9,1.7-1.6.4-.6.8-1.4,1-2.2.2-.8.3-1.6.3-2.4s-.1-1.6-.3-2.4c-.2-.8-.6-1.5-1-2.1-.4-.6-1-1.1-1.7-1.5-.7-.4-1.5-.6-2.4-.6s-1.7.2-2.4.6c-.7.4-1.2.9-1.7,1.5-.4.6-.8,1.4-1,2.1-.2.8-.3,1.6-.3,2.4Z"/>
    <path class="st2" d="M560.7,438.1h4.5v3.5h0c.5-1.2,1.2-2.2,2.2-2.9.9-.8,2-1.1,3.3-1.1s.4,0,.6,0c.2,0,.4,0,.5.1v4.8c-.3,0-.6-.1-.8-.2-.2,0-.4,0-.6,0-1.1,0-1.9.2-2.6.7-.7.4-1.2,1-1.5,1.6-.4.6-.6,1.2-.7,1.9-.1.6-.2,1.1-.2,1.5v11.1h-4.7v-20.8Z"/>
    <path class="st2" d="M578.3,431.1c0-.8.3-1.6.8-2.2.6-.6,1.3-.9,2.1-.9s1.6.3,2.2.9c.6.6.9,1.3.9,2.2s-.3,1.6-.9,2.2c-.6.6-1.3.9-2.2.9s-1.6-.3-2.1-.9c-.6-.6-.8-1.4-.8-2.2ZM578.9,438.1h4.7v20.8h-4.7v-20.8Z"/>
    <path class="st2" d="M593.2,438.1h4.4v3.3h0c.4-1,1.1-2,2.2-2.8,1-.8,2.2-1.2,3.7-1.2s2.3.2,3.1.7c.9.5,1.6,1.1,2.1,1.9.6.8,1,1.7,1.2,2.7.3,1,.4,2.1.4,3.1v13h-4.7v-11.5c0-.6,0-1.2-.1-1.9,0-.7-.2-1.3-.5-1.8-.3-.5-.6-1-1.1-1.3-.5-.3-1.1-.5-1.8-.5s-1.4.2-2,.5c-.5.3-1,.8-1.3,1.3-.4.5-.6,1.1-.8,1.8-.2.7-.3,1.4-.3,2.1v11.4h-4.7v-20.8Z"/>
    <path class="st2" d="M638.9,438.1v19c0,1.9-.2,3.6-.6,5.1-.4,1.5-1.1,2.8-1.9,3.9-.9,1.1-2,1.9-3.3,2.5-1.3.6-2.9.9-4.7.9s-1.6,0-2.4-.2c-.8-.1-1.7-.4-2.5-.7-.8-.3-1.6-.7-2.4-1.1s-1.4-.9-2-1.5l2.7-4c.9,1,1.9,1.7,3.1,2.2,1.1.5,2.3.8,3.5.8s2.1-.2,2.8-.5c.8-.4,1.4-.9,1.8-1.5.5-.6.8-1.4,1-2.3.2-.9.3-1.8.3-2.9v-1.5h0c-.7,1-1.5,1.8-2.6,2.3-1.1.5-2.2.8-3.5.8s-2.7-.3-3.8-.9c-1.1-.6-2.1-1.4-2.9-2.3-.8-1-1.4-2.1-1.9-3.4-.4-1.3-.7-2.7-.7-4.2s.2-2.9.6-4.2c.4-1.3,1-2.5,1.8-3.5.8-1,1.8-1.8,2.9-2.3,1.1-.6,2.4-.9,3.8-.9s2.6.3,3.7.9c1.1.6,2.1,1.5,2.7,2.8h0v-3.1h4.5ZM628.9,441.8c-.9,0-1.6.2-2.3.5-.7.3-1.2.8-1.7,1.4-.5.6-.8,1.3-1.1,2.1-.2.8-.4,1.7-.4,2.6s.1,1.6.4,2.4c.2.8.6,1.5,1.1,2.1.5.6,1,1.1,1.7,1.5.7.4,1.4.6,2.2.6s1.6-.2,2.3-.5c.7-.4,1.3-.8,1.8-1.4.5-.6.9-1.3,1.1-2.1.3-.8.4-1.6.4-2.5s-.1-1.7-.4-2.6c-.3-.8-.6-1.5-1.1-2.1-.5-.6-1.1-1.1-1.7-1.4-.7-.3-1.4-.5-2.3-.5Z"/>
    <path class="st2" d="M674.9,443.9c-.4-.6-.9-1.1-1.6-1.5-.7-.4-1.5-.6-2.2-.6s-1.6.2-2.3.6c-.7.4-1.2.9-1.6,1.5-.4.6-.7,1.4-1,2.1-.2.8-.3,1.6-.3,2.4s.1,1.6.3,2.4.6,1.5,1,2.1c.4.6,1,1.1,1.7,1.5.7.4,1.4.6,2.3.6s1.5-.2,2.2-.5c.7-.3,1.3-.8,1.8-1.4l2.9,3.3c-.8.9-1.8,1.6-3,2.1-1.2.5-2.5.8-3.9.8s-2.7-.2-3.9-.7c-1.2-.5-2.3-1.2-3.2-2.2-.9-1-1.7-2.1-2.2-3.5-.5-1.4-.8-2.9-.8-4.6s.3-3.2.8-4.6c.5-1.4,1.3-2.5,2.2-3.5.9-1,2-1.7,3.2-2.2,1.2-.5,2.5-.8,3.9-.8s2.7.3,4,.9c1.3.6,2.3,1.4,3.1,2.4l-3.2,3.1Z"/>
    <path class="st2" d="M696.6,456.3h-.1c-.5.9-1.2,1.7-2.3,2.3-1,.6-2.2.9-3.6.9s-1.5-.1-2.4-.3c-.8-.2-1.6-.6-2.3-1.1-.7-.5-1.3-1.2-1.7-2-.5-.8-.7-1.8-.7-3.1s.4-2.8,1.2-3.7c.8-.9,1.8-1.6,3.1-2.1,1.2-.5,2.6-.8,4.2-1,1.5-.2,3-.2,4.5-.2v-.5c0-1.3-.4-2.3-1.3-2.9-.8-.6-1.9-.9-3-.9s-1.9.2-2.8.7c-.9.5-1.7,1-2.3,1.7l-2.4-3.2c1.1-1.1,2.3-1.9,3.7-2.5,1.4-.5,2.8-.8,4.2-.8s3,.3,4.1.8c1.1.5,1.9,1.2,2.6,2,.6.8,1.1,1.8,1.3,2.8.2,1,.4,2.1.4,3.1v12.7h-4.4v-2.6ZM696.6,449.4h-1.1c-.8,0-1.5,0-2.4.1-.8,0-1.6.2-2.3.5-.7.2-1.3.6-1.8,1-.5.4-.7,1.1-.7,1.8s0,.9.3,1.2c.2.3.4.6.8.8.3.2.7.3,1.1.4.4,0,.8.1,1.2.1,1.6,0,2.8-.5,3.7-1.4.8-1,1.2-2.3,1.2-3.9v-.7Z"/>
    <path class="st2" d="M710.4,438.1h4.5v3.5h0c.5-1.2,1.2-2.2,2.2-2.9.9-.8,2-1.1,3.3-1.1s.4,0,.6,0c.2,0,.4,0,.5.1v4.8c-.3,0-.6-.1-.8-.2-.2,0-.4,0-.6,0-1.1,0-1.9.2-2.6.7-.7.4-1.2,1-1.5,1.6-.4.6-.6,1.2-.7,1.9-.1.6-.2,1.1-.2,1.5v11.1h-4.7v-20.8Z"/>
    <path class="st2" d="M738.8,443.7c-.4-.6-1-1.1-1.7-1.6-.7-.4-1.5-.7-2.4-.7s-1.4.2-2.1.5-.9.9-.9,1.7.3,1.4,1,1.7c.7.3,1.7.7,3,1,.7.2,1.4.4,2.1.7.7.3,1.4.7,2,1.1.6.5,1.1,1.1,1.4,1.8.4.7.5,1.6.5,2.6s-.2,2.3-.6,3.2c-.4.9-1,1.6-1.7,2.1-.7.5-1.5.9-2.5,1.2-.9.2-1.9.4-2.9.4-1.5,0-2.9-.3-4.3-.9-1.4-.6-2.5-1.4-3.4-2.5l3.1-3.2c.5.8,1.2,1.4,2,1.9.8.5,1.8.7,2.8.7s.7,0,1-.1c.4,0,.7-.2,1-.4s.5-.4.7-.8c.2-.3.3-.7.3-1.2,0-.9-.4-1.5-1.1-1.9-.7-.4-1.8-.8-3.2-1.1-.7-.2-1.4-.4-2-.7-.7-.3-1.3-.6-1.8-1.1-.5-.4-.9-1-1.2-1.7-.3-.7-.5-1.5-.5-2.5s.2-2.2.6-3c.4-.8,1-1.5,1.7-2.1.7-.5,1.5-.9,2.4-1.2.9-.3,1.8-.4,2.7-.4,1.4,0,2.7.3,4,.8,1.3.5,2.3,1.3,3.1,2.4l-3,3Z"/>
  </g>
  <path class="st1" d="M541.5,131.9c-3.6-5.9-7.8-.7-8.4,0-2.8,2.3-3.6,3.4-4.3,4-.6.6-2.8,2.8-8.8,2.4-6-.4-6.5-.1-8.8-1.4-2.3-1.3-2.4-3.5-2.4-3.5,0,0,2-1,2.5-3.2,18,1.7,21.3-12.6,21.3-12.6,0,0,.4-3.7,5.5-10.7,1.8-1.6,3.6-3.1,3.2-6.3.4-1.8.5-3.2.5-3.2,0,0,.3-4.2-3.5-5.4-6-2-7.6,6-7.9,6.7-.3.7-2.1,4.1-4.5,10.9-5,8.4-11.9,6.2-11.9,6.2,0,0-.9-1.1-2.8-2.3-2-.5-2.2-.5-5.4-.6-3.1,0-6.4-4.2-6.4-4.2,0,0-.6-3.2-8.9-2.7-2.1-1.4,1.2-4,1.2-4,0,0,9.4-2.8,8.9.8,1.4,1.9,3.1,3.2,5.2,3.5,2.1.3,2.3-.5,1-1-1.3-.5-2-4-2-4,0,0,2.2-7.1-2.7-5.9-4.1-.4-4.2-.7-4.2-.7,0,0-2.5-1.6.2-1.9,2.7-.2.2.4,5.5-.4,1.8-.3.7-1.5,3.6-1.9,1.5.2,1.4-2.9,1.4-2.9,0,0,0-.6-.3-2.2,1.4-1.5,0-3,0-3,0,0-8.3-1.1-16.7-4.8-8.4-3.7-14.5-2.3-14.5-2.3,0,0-6.6,1.2-9.5,2.4-4.4.4-2.9-.4-8.7,1.7-5,1.9-4.8,3.1-5.7,4.7-.9,1.6-2.6,7.2-1.7,12.9-4.2,6.7-7.7,11.9.2,20.6,2.6,5.4,5,6.4,5,6.4,0,0-.2,6,3.2,8.4,1.7,1.7,2.7,1.8,2.7,3.2,1,.9.1-6.6,2-1.2.3,2.3,0,5.4,0,8.3-1.4,8.8.8,10.4-1.4,14.5-31.4,40.3-17.8,48.8-17.8,48.8,0,0,2.9,5.7-.3,8.6-4.3.6-9.2,2.8-11.1-6.9-2.2-9.6,4.7-23.3,4.7-23.3,0,0,11.7-20,11.2-34.7-.6-10.9-2.1-10.4-5-18.8-2.7-8.8-2.5-20.6-2.5-20.6,0,0-.3-10.7-4.4-15.1-6.3-11-12.9-3-12.9-3,0,0-2.7,4.9-3,9.3-1.8,7.7,4.8,11.1,7.2,25.1-2.4,14.2-.7,10.5-4.2,17.6-4.9,6.9-1.8,10.1-1.8,10.1,0,0,2.5,7.5,4.7,8.4.6,5-2.4,6.7-2.4,6.7,0,0-2.3,3,5.2.7,2.2-1.9,2.5-6.7,2.5-6.7,0,0,.3-5.2-2.2-8.4-2.6,0,2.2-2.7,2.2-2.7,0,0,2.5-1.9,1.1-8.4,1.8-7.4-.3-17.6-.3-17.6,0,0-2-9.7-7.7-19.1-.8-5.7,1-8.7,1-8.7,0,0,2.3-8.9,7.9-.5,2.1,3.8,2.5,5.7,2.5,5.7,0,0,.2,0,.7,13.4.6,13.4,3.7,18.1,3.7,18.1,0,0,6.5,10.7,1.2,26.2-3,6.8-9.8,20.5-9.8,20.5,0,0-5.5,11.2-5.5,17-3.4,30.8,18.7,21.4,18.6,20.7,1.9,1.7,5-5.9,5-5.9,0,0-2.8,7.5-2.2,9.4.5,1.9,3.2-.7,3.2-.7l.7,2.2h3.7s-3.5,3.6-3.7,5.2c3.6,3.3,14.4,1.7,14.4,1.7l1.2,2s.4,1.6,2.7-.3c-5.3,9.7-3.9,5.4-10.9,10.4-7.8,5.6-3.2,9.9-3.2,9.9l5.9,15.6s1.7,7.6,8.2,4.5c4.7-.8,6.4-.7,6.4-.7,0,0,9.5,0,5.7-6.2-.9-6.1-4.2-3.3-5.4-3-5.1.8-4.9,0-7.2.7-2.2.6-5.7-7.6-6.7-11.9,6.4-5.1,40.2-5.9,19.3-36.9-6.2-3.2-1.6-1.6,2-.7,3.6.9,4.7-4,4.7-4l-.3-2.2,4.7.7s3.7.5,1.8-1.5c-2-1.9,0-1.7,0-1.7h3.4l8.7,11.6s.5,9.4,6.9,8.7c2.9-.8,5.2-2.6,8.2-2.7,3-.1,5.3-1.7,3.3-6-.4-1.9-1.8-1.6-3.8-.9-7.4.4-8.4-.5-8.4-.5l-6.2-19.8s-1.8-12-13.4-10.6c-11.6,1.4-12.6,1-12.6,1,0,0-1.9-1.7-.2-3.2,1.7-1.5-1.1-.3,8.9-8.9,12-4.2,14.1-22.6,12.9-21.5-1,0,2-2.2,2-2.2l-.3-2.7s3.2-1.8,13.6-.7c13,1.3,11.6-3.1,13.2-4.7.9-4,5.2-3.5,5.2-3.5,0,0,1.8-.9,2.6-1,.8-.2,3.1-1.1,1-6.7ZM505.3,86.5s.2,0,.4-.8c.2-.9,1.6-1.3,1.6-1.3h0c.5-.1.5.2.5.2,0,0,0,.9,0,1.9-.7-.2-.4,0-.5.4-.5.8-1.1-.3-2.2,1-.7.7,0-1.3,0-1.3ZM488.4,86.3c-.6-.1-2.1-.2-2.6-.5-.5-.3-1.2-.4-1.5-2,.1-.4-.8-.8-.8-.8,0,0,3.6-1.3,4.9-1.4,1.4-.2,4.4-.6,5.5-.3,1.1.2,7.2,1.9,8.7,3.3.7.7.9.5,1.1.4.4.6.1.2-.1,1-.2.8-2.4.3-2.4.3,0,0-1.3-.9-1.2-1.3,0-.5-.3-.6-.3-.6,0,0-2.8-1.5-4.4-1.1-.8.2-1,.7-1,.7l-1.4,2.2s-3.1.5-4.5.2Z"/>
  <path class="st1" d="M381.5,127c2.4-13.9,8.9-17.4,7.1-25.1-.2-4.4-2.9-9.3-2.9-9.3,0,0-6.6-8-12.9,3-4.1,4.5-4.5,15.1-4.5,15.1,0,0,.2,11.8-2.5,20.6-2.9,8.4-4.3,7.9-4.9,18.8-.6,14.7,11.1,34.7,11.1,34.7,0,0,6.9,13.7,4.7,23.3-1.9,9.7-6.8,7.5-11.1,6.9-3.2-2.9-.3-8.7-.3-8.7,0,0,13.6-8.4-17.8-48.8-2.2-4,0-5.6-1.4-14.4-.2-2.9-.5-6.1-.1-8.3,1.9-5.4,1,2.2,2,1.2,0-1.3,1-1.5,2.7-3.2,3.4-2.4,3.2-8.5,3.2-8.5,0,0,2.4-1,5-6.4,7.9-8.7,4.5-13.8.2-20.6.9-5.7-.8-11.3-1.7-12.9-.9-1.6-.8-2.8-5.7-4.7-5.7-2.1-4.3-1.4-8.7-1.7-3-1.3-9.5-2.4-9.5-2.4,0,0-6.1-1.4-14.5,2.3-8.4,3.7-16.8,4.8-16.8,4.8,0,0-1.4,1.5,0,3-.2,1.6-.2,2.2-.2,2.2,0,0,0,3.1,1.4,2.9,2.8.4,1.7,1.6,3.6,1.9,5.3.8,2.8.2,5.6.4,2.7.2.1,1.9.1,1.9,0,0-.1.3-4.2.7-4.9-1.2-2.7,5.9-2.7,5.9,0,0-.6,3.4-2,4-1.3.5-1,1.3,1,1,2-.3,3.7-1.6,5.2-3.5-.5-3.6,8.9-.7,8.9-.7,0,0,3.3,2.6,1.2,4-8.3-.4-8.9,2.7-8.9,2.7,0,0-3.3,4.2-6.4,4.2-3.1.2-3.4.1-5.4.7-1.9,1.2-2.8,2.3-2.8,2.3,0,0-6.9,2.2-11.9-6.2-2.4-6.8-4.2-10.2-4.5-10.9-.3-.7-1.9-8.6-7.9-6.7-3.8,1.3-3.4,5.4-3.4,5.4,0,0,0,1.4.5,3.2-.4,3.1,1.4,4.7,3.2,6.2,5,7,5.4,10.7,5.4,10.7,0,0,3.4,14.3,21.3,12.6.5,2.2,2.5,3.2,2.5,3.2,0,0-.1,2.2-2.5,3.5-2.3,1.3-2.8,1-8.8,1.4-6,.5-8.1-1.8-8.8-2.4-.6-.6-1.4-1.6-4.3-4-.6-.8-4.8-5.9-8.4,0-2.1,5.6.2,6.5,1,6.7.8.2,2.6,1,2.6,1,0,0,4.2-.5,5.2,3.5,1.7,1.6.2,6,13.2,4.7,10.4-1.1,13.6.7,13.6.7l-.2,2.7s3,2.3,2,2.2c-1.2-1,.8,17.4,12.9,21.5,9.9,8.6,7.2,7.4,8.9,8.9,1.7,1.5-.3,3.2-.3,3.2,0,0-1.1.4-12.7-1-11.5-1.4-13.4,10.7-13.4,10.7l-6.2,19.8s-1,1-8.4.5c-2-.7-3.4-1-3.8.9-2,4.3.3,5.9,3.3,6,3,.2,5.2,2,8.2,2.7,6.4.7,6.9-8.7,6.9-8.7l8.7-11.6h3.4s2-.2,0,1.7c-2,1.9,1.7,1.5,1.7,1.5l4.7-.7-.3,2.2s1.1,4.9,4.7,4c3.6-.9,8.2-2.5,2,.7-20.9,31,12.9,31.8,19.3,36.9-.9,4.3-4.4,12.6-6.7,11.9-2.2-.7-2.1,0-7.2-.8-1.2-.4-4.5-3.1-5.4,3-3.9,6.3,5.7,6.2,5.7,6.2,0,0,1.7-.1,6.4.7,6.5,3.1,8.2-4.5,8.2-4.5l6-15.6s4.5-4.3-3.2-9.9c-7-5-5.6-.7-10.9-10.4,2.3,1.8,2.7.3,2.7.3l1.2-2s10.8,1.6,14.4-1.7c-.3-1.6-3.7-5.2-3.7-5.2h3.7l.7-2.3s2.7,2.7,3.2.7c.5-1.9-2.2-9.4-2.2-9.4,0,0,3.1,7.6,5,5.9,0,.7,22.1,10.1,18.6-20.7,0-5.8-5.6-17-5.6-17,0,0-6.9-13.7-9.8-20.5-5.3-15.6,1.2-26.2,1.2-26.2,0,0,3.1-4.7,3.7-18.1.6-13.4.7-13.4.7-13.4,0,0,.5-1.9,2.5-5.7,5.6-8.4,7.9.5,7.9.5,0,0,1.8,2.9,1,8.7-5.6,9.4-7.7,19.1-7.7,19.1,0,0-2.1,10.1-.3,17.6-1.4,6.5,1.1,8.4,1.1,8.4,0,0,4.8,2.8,2.2,2.7-2.5,3.3-2.2,8.4-2.2,8.4,0,0,.3,4.8,2.5,6.7,7.4,2.3,5.2-.8,5.2-.8,0,0-3.1-1.7-2.5-6.7,2.2-.9,4.7-8.4,4.7-8.4,0,0,3.2-3.3-1.7-10.2-3.5-7.1-1.8-3.3-4.2-17.6ZM305.3,88.1c-1.1-1.2-1.6,0-2.1-1-.2-.3.2-.5-.5-.3,0-1,0-1.9,0-1.9,0,0,0-.3.5-.3h0c0,.1,1.5.6,1.7,1.4.2.9.4.8.4.8,0,0,.7,2,0,1.3ZM326.3,84.1c-.3,1.6-1,1.8-1.5,2.1-.5.3-2,.4-2.5.5-1.4.3-4.6-.2-4.6-.2l-1.4-2.2s-.2-.5-1-.7c-1.6-.4-4.4,1.1-4.4,1.1,0,0-.4,0-.3.6,0,.4-1.2,1.3-1.2,1.3,0,0-2.2.4-2.4-.4-.2-.8-.5-.3-.1-.9.2.1.4.3,1.1-.4,1.5-1.4,7.6-3.1,8.6-3.3,1-.3,4.1.1,5.5.3,1.4.2,4.9,1.4,4.9,1.4,0,0-.9.4-.8.8Z"/>
  <path class="st2" d="M752.6,305h-1.3v-13.1h3.8c.6,0,1.2,0,1.8.2.5.1,1,.3,1.4.6.4.3.7.6.9,1.1.2.4.3,1,.3,1.6s0,.9-.3,1.3c-.2.4-.4.7-.7,1-.3.3-.6.5-1.1.7-.4.2-.9.3-1.3.3l3.8,6.2h-1.6l-3.6-6.1h-2.2v6.1ZM752.6,297.7h2.3c1.1,0,1.9-.2,2.5-.6.6-.4.9-1,.9-1.7s0-.8-.2-1.1c-.2-.3-.4-.5-.7-.7-.3-.2-.6-.3-1-.4-.4,0-.9-.1-1.4-.1h-2.4v4.7Z"/>
  <path class="st3" d="M755.2,311.8c-7.4,0-13.4-6-13.4-13.4s6-13.4,13.4-13.4,13.4,6,13.4,13.4-6,13.4-13.4,13.4ZM755.2,287.1c-6.3,0-11.4,5.1-11.4,11.4s5.1,11.4,11.4,11.4,11.4-5.1,11.4-11.4-5.1-11.4-11.4-11.4Z"/>
</svg>